# AST/ASF file generated using VICON BodyLanguage
# -----------------------------------------------
:version 1.10
:name VICON
:units
  mass 1.0
  length 0.45
  angle deg
:documentation
   .ast/.asf automatically generated from VICON data using
   VICON BodyBuilder and BodyLanguage model FoxedUp or BRILLIANT.MOD
:root
   order TX TY TZ RX RY RZ
   axis XYZ
   position 0 0 0  
   orientation 0 0 0 
:bonedata
  begin
     id 1 
     name lhipjoint
     direction 0.584852 -0.759097 0.285867 
     length 2.43633 
     axis 0 0 0  XYZ
  end
  begin
     id 2 
     name lfemur
     direction 0.34202 -0.939693 0  
     length 7.14704  
     axis 0 0 20  XYZ
    dof rx ry rz
    limits (-160.0 20.0)
           (-70.0 70.0)
           (-60.0 70.0)
  end
  begin
     id 3 
     name ltibia
     direction 0.342022 -0.939692 0   
     length 7.68483   
     axis 0 0 20   XYZ
    dof rx
    limits (-10.0 170.0)
  end
  begin
     id 4 
     name lfoot
     direction 0.0999605 -0.274639 0.956337   
     length 2.40452   
     axis -90 7.62852e-016 20   XYZ
    dof rx rz
    limits (-45.0 90.0)
           (-70.0 20.0)
  end
  begin
     id 5 
     name ltoes
     direction 1.53468e-011 -4.21881e-011 1   
     length 1.19837   
     axis -90 7.62852e-016 20   XYZ
    dof rx
    limits (-90.0 20.0)
  end
  begin
     id 6 
     name rhipjoint
     direction -0.569886 -0.769002 0.289597   
     length 2.40495  
     axis 0 0 0  XYZ 
  end
  begin
     id 7 
     name rfemur
     direction -0.34202 -0.939693 0   
     length 7.45086   
     axis 0 0 -20   XYZ
    dof rx ry rz
    limits (-160.0 20.0)
           (-70.0 70.0)
           (-70.0 60.0)
  end
  begin
     id 8 
     name rtibia
     direction -0.34202 -0.939693 0   
     length 7.76831   
     axis 0 0 -20   XYZ
    dof rx
    limits (-10.0 170.0)
 end
 begin
     id 9 
     name rfoot
     direction -0.0798572 -0.219406 0.97236   
     length 2.35911  
     axis -90 -7.62852e-016 -20   XYZ
    dof rx rz
    limits (-45.0 90.0)
           (-20.0 70.0)
  end
  begin
     id 10 
     name rtoes
     direction -1.53469e-011 -4.21728e-011 1   
     length 1.18261   
     axis -90 -7.62852e-016 -20   XYZ
    dof rx
    limits (-90.0 20.0)
  end
  begin
     id 11 
     name lowerback
     direction 0.0242088 0.999437 0.0232389   
     length 2.1561   
     axis 0 0 0   XYZ
    dof rx ry rz
    limits (-20.0 45.0)
           (-30.0 30.0)
           (-30.0 30.0)
  end
  begin
     id 12 
     name upperback
     direction -0.0356893 0.999013 -0.0264323   
     length 2.14431   
     axis 0 0 0   XYZ
    dof rx ry rz
    limits (-20.0 45.0)
           (-30.0 30.0)
           (-30.0 30.0)
  end
  begin
     id 13 
     name thorax
     direction -0.0472163 0.998194 -0.0371284   
     length 2.16169   
     axis 0 0 0   XYZ
    dof rx ry rz
    limits (-20.0 45.0)
           (-30.0 30.0)
           (-30.0 30.0)
  end
  begin
     id 14 
     name lowerneck
     direction 0.00863244 0.999921 0.00911972   
     length 1.58651   
     axis 0 0 0   XYZ
    dof rx ry rz
    limits (-20.0 45.0)
           (-30.0 30.0)
           (-30.0 30.0)
  end
  begin
     id 15 
     name upperneck
     direction 0.149523 0.979068 -0.138086   
     length 1.57486   
     axis 0 0 0   XYZ
    dof rx ry rz
    limits (-20.0 45.0)
           (-30.0 30.0)
           (-30.0 30.0)
  end
  begin
     id 16
     name head
     direction 0.0445219 0.997708 -0.0509576  
     length 1.6019  
     axis 0 0 0   XYZ
    dof rx ry rz
    limits (-20.0 45.0)
           (-30.0 30.0)
           (-30.0 30.0)
  end
  begin
     id 17 
     name lclavicle
     direction 0.911271 0.381667 -0.154644  
     length 3.80848  
     axis 0 0 0   XYZ
    dof ry rz
    limits (-20.0 10.0)
           (0.0 20.0)
  end
  begin
     id 18 
     name lhumerus
     direction 1 -4.49003e-011 2.1308e-027   
     length 5.19069   
     axis 180 -30 -90   XYZ
    dof rx ry rz
    limits (-60.0 90.0)
           (-90.0 90.0)
           (-90.0 90.0)
  end
  begin
     id 19
     name lradius
     direction 1 -4.48914e-011 4.01554e-027   
     length 3.30016   
     axis 180 -30 -90   XYZ
    dof rx
    limits (-10.0 170.0)
  end
  begin
     id 20
     name lwrist
     direction 1 -4.49003e-011 1.1934e-026   
     length 1.65008   
     axis -8.46377e-015 90 90   XYZ
    dof ry
    limits (-180.0 0.0)
 end
  begin
     id 21 
     name lhand
     direction 1 -4.49034e-011 2.38659e-026   
     length 0.707698   
     axis -1.52313e-014 90 90   XYZ
    dof rx rz
    limits (-90.0 90.0)
           (-45.0 45.0)
  end
  begin
     id 22 
     name lfingers
     direction 1 -4.48691e-011 4.77775e-026   
     length 0.570564   
     axis -3.04623e-014 90 90   XYZ
    dof rx
    limits (0.0 90.0)
  end
  begin
     id 23
     name lthumb
     direction 0.707107 -6.34832e-011 0.707107   
     length 0.819219   
     axis -90 45 -1.62303e-014   XYZ
    dof rx rz
    limits (-45.0 45.0)
           (-45.0 45.0)
  end
  begin
     id 24 
     name rclavicle
     direction -0.815579 0.573708 -0.0754329   
     length 3.54371  
     axis 0 0 0   XYZ 
    dof ry rz
    limits (-10.0 20.0)
           (-20.0 0.0)
  end
  begin
     id 25 
     name rhumerus
     direction -1 -4.48956e-011 3.05351e-028  
     length 5.23924   
     axis 180 30 90   XYZ
    dof rx ry rz
    limits (-90.0 60.0)
           (-90.0 90.0)
           (-90.0 90.0)
  end
  begin
     id 26 
     name rradius
     direction -1 -4.49013e-011 3.53849e-027   
     length 3.32953   
     axis 180 30 90   XYZ
    dof rx
    limits (-10.0 170.0)
  end
  begin
     id 27 
     name rwrist
     direction -1 -4.48901e-011 1.19374e-026   
     length 1.66477   
     axis -8.46377e-015 -90 -90   XYZ
    dof ry
    limits (-180.0 0.0)
  end
  begin
     id 28
     name rhand
     direction -1 -4.48877e-011 2.38764e-026   
     length 0.607414   
     axis -1.52313e-014 -90 -90   XYZ
    dof rx rz
    limits (-90.0 90.0)
           (-45.0 45.0)
  end
  begin
     id 29
     name rfingers
     direction -1 -4.48882e-011 4.77521e-026   
     length 0.489712   
     axis -3.04623e-014 -90 -90   XYZ
    dof rx
    limits (0.0 90.0)
  end
  begin
     id 30
     name rthumb
     direction -0.707107 -6.34974e-011 0.707107   
     length 0.703132   
     axis -90 -45 1.62303e-014   XYZ
    dof rx rz
    limits (-45.0 45.0)
           (-45.0 45.0)
  end
:hierarchy
  begin
    root lhipjoint rhipjoint lowerback
    lhipjoint lfemur
    lfemur ltibia
    ltibia lfoot
    lfoot ltoes
    rhipjoint rfemur
    rfemur rtibia
    rtibia rfoot
    rfoot rtoes
    lowerback upperback
    upperback thorax
    thorax lowerneck lclavicle rclavicle
    lowerneck upperneck
    upperneck head
    lclavicle lhumerus
    lhumerus lradius
    lradius lwrist
    lwrist lhand lthumb
    lhand lfingers
    rclavicle rhumerus
    rhumerus rradius
    rradius rwrist
    rwrist rhand rthumb
    rhand rfingers
  end

#!OML:ASF E:\VariousWalksJay\Project 1\Capture day 1\Session 1\Actor2.ASF
:FULLY-SPECIFIED
:DEGREES
164
root 22.8222 13.9412 -16.2816 8.83036 -42.1712 -1.52403
lowerback 41.8339 -4.73109 6.90091
upperback 20.4 -4.76507 -1.18844
thorax 2.54011 -2.23833 -3.22914
lowerneck 2.53814 2.03921 4.4547
upperneck -21.1445 2.20571 -4.63838
head -6.72529 1.00533 -2.37901
rclavicle 4.25399e-014 -6.95746e-015
rhumerus 4.17648 30.1735 -65.7314
rradius 107.685
rwrist -0.241113
rhand -30.6283 -15.0282
rfingers 7.12502
rthumb -3.92425 -44.9718
lclavicle 4.25399e-014 -6.95746e-015
lhumerus 64.8047 -3.01059 39.5101
lradius 66.2436
lwrist 54.6196
lhand -30.8386 13.0775
lfingers 7.12502
lthumb -4.12728 43.0172
rfemur -57.5671 1.62934 31.5949
rtibia 88.2712
rfoot -35.4237 -16.218
rtoes -6.24937
lfemur -82.5404 8.43177 -21.7326
ltibia 81.4983
lfoot -17.6944 7.55105
ltoes -19.8883
165
root 22.7774 13.959 -16.2262 8.69691 -42.2511 -1.62674
lowerback 41.5893 -4.74712 6.99407
upperback 20.4028 -4.7729 -1.17656
thorax 2.60695 -2.2352 -3.27268
lowerneck 2.52902 2.09997 4.34096
upperneck -21.1891 2.28349 -4.6129
head -6.73619 1.04962 -2.35699
rclavicle 1.66979e-014 -1.22849e-013
rhumerus 3.85873 30.4261 -65.9077
rradius 107.44
rwrist -0.154013
rhand -30.7818 -14.8812
rfingers 7.12502
rthumb -4.07247 -44.822
lclavicle 1.66979e-014 -1.22849e-013
lhumerus 64.5017 -3.31914 39.6918
lradius 66.1841
lwrist 54.5345
lhand -30.6628 13.1612
lfingers 7.12502
lthumb -3.95749 43.1042
rfemur -56.9667 1.3732 31.6821
rtibia 88.245
rfoot -35.533 -16.0113
rtoes -7.03477
lfemur -81.9381 8.67174 -22.2401
ltibia 78.7975
lfoot -17.5564 7.43786
ltoes -20.4387
166
root 22.7361 13.9746 -16.1685 8.64375 -42.0797 -1.72645
lowerback 41.2133 -4.86816 7.24733
upperback 20.3778 -4.84701 -1.10013
thorax 2.67573 -2.25255 -3.31062
lowerneck 2.56979 2.12853 4.30451
upperneck -21.2484 2.30931 -4.6684
head -6.76055 1.06937 -2.37211
rclavicle 3.89618e-014 6.92765e-014
rhumerus 3.4206 30.5766 -66.0234
rradius 107.236
rwrist -0.0435187
rhand -30.7504 -14.7193
rfingers 7.12502
rthumb -4.04211 -44.6607
lclavicle 3.89618e-014 6.92765e-014
lhumerus 64.2037 -3.7184 39.8516
lradius 66.2298
lwrist 54.5447
lhand -30.7484 12.8965
lfingers 7.12502
lthumb -4.04021 42.838
rfemur -56.5374 0.83403 31.8074
rtibia 88.252
rfoot -35.6949 -15.7223
rtoes -7.62672
lfemur -81.3842 8.66768 -22.7568
ltibia 76.0216
lfoot -17.3704 7.34677
ltoes -21.261
167
root 22.6895 13.9974 -16.1169 8.51792 -42.1102 -1.70837
lowerback 40.8989 -4.80133 7.17509
upperback 20.355 -4.80988 -1.02004
thorax 2.74828 -2.24449 -3.21722
lowerneck 2.58154 2.17556 4.26794
upperneck -21.3168 2.36197 -4.71055
head -6.78177 1.10067 -2.38428
rclavicle 4.49253e-014 -4.74101e-014
rhumerus 3.02627 30.765 -66.1738
rradius 106.992
rwrist 0.0371038
rhand -30.9058 -14.5077
rfingers 7.12502
rthumb -4.19221 -44.4462
lclavicle 4.49253e-014 -4.74101e-014
lhumerus 63.9452 -4.15115 40.0714
lradius 66.2192
lwrist 54.4174
lhand -30.6319 12.8612
lfingers 7.12502
lthumb -3.92765 42.8048
rfemur -56.0399 0.489624 31.8273
rtibia 88.1899
rfoot -35.6795 -15.5873
rtoes -8.88267
lfemur -80.7259 8.90584 -23.412
ltibia 73.2316
lfoot -17.2763 7.18474
ltoes -21.4961
168
root 22.6453 14.0145 -16.0648 8.58939 -41.9532 -1.83674
lowerback 40.2934 -4.90136 7.35887
upperback 20.4533 -4.91202 -0.971352
thorax 2.84702 -2.27516 -3.25916
lowerneck 2.52705 2.23867 4.24016
upperneck -21.3166 2.44097 -4.73285
head -6.76821 1.14261 -2.3907
rclavicle 1.19271e-014 5.2181e-014
rhumerus 2.62263 31.0141 -66.4305
rradius 106.744
rwrist 0.117515
rhand -31.0063 -14.327
rfingers 7.12502
rthumb -4.28927 -44.2636
lclavicle 1.19271e-014 5.2181e-014
lhumerus 63.5749 -4.51373 40.1519
lradius 66.3045
lwrist 54.3245
lhand -30.7236 12.6303
lfingers 7.12502
lthumb -4.01619 42.5722
rfemur -55.6994 0.0234532 31.9805
rtibia 88.1578
rfoot -35.7941 -15.2195
rtoes -9.29429
lfemur -80.1989 9.0191 -23.9752
ltibia 70.4403
lfoot -17.0939 6.9107
ltoes -21.233
169
root 22.5991 14.0417 -15.9988 8.49656 -42.0174 -1.95474
lowerback 39.9015 -5.00781 7.55006
upperback 20.4986 -5.01708 -1.05912
thorax 2.98273 -2.30054 -3.43645
lowerneck 2.49264 2.33158 4.17139
upperneck -21.3588 2.57825 -4.65214
head -6.77193 1.20761 -2.36154
rclavicle 3.29983e-014 -9.43233e-014
rhumerus 2.28024 31.308 -66.8021
rradius 106.408
rwrist 0.211869
rhand -31.2054 -14.136
rfingers 7.12502
rthumb -4.4815 -44.0686
lclavicle 3.29983e-014 -9.43233e-014
lhumerus 63.1528 -4.7975 39.9591
lradius 66.4874
lwrist 54.3266
lhand -30.6568 12.7147
lfingers 7.12502
lthumb -3.95177 42.6578
rfemur -55.0594 -0.400608 32.0799
rtibia 87.9965
rfoot -35.6374 -15.3614
rtoes -11.338
lfemur -79.3738 9.31829 -24.5743
ltibia 67.6693
lfoot -17.1053 6.7629
ltoes -20.9269
